<svg xmlns="http://www.w3.org/2000/svg" width="180mm" height="142mm" viewBox="0 0 180 142"><g transform="translate(.283 -135.563)"><path style="fill:#ffc000;fill-opacity:1;stroke:#000;stroke-width:0;stroke-miterlimit:4;stroke-dasharray:none;stroke-opacity:1" d="M393.938 326.941h-110.67L227.935 231.1l55.335-95.843h110.67l55.334 95.843z" transform="matrix(0 -.24165 .24165 0 34.347 261.2)"/><path transform="matrix(.25973 0 0 .25973 -4.764 125.622)" d="m246.41 378.948 32.838 57.142 86.1-48.868 86.102 48.092 31.803-56.108L365.807 311.4z" style="fill:#ffc000;fill-opacity:1;stroke:#000;stroke-width:0;stroke-linecap:butt;stroke-linejoin:miter;stroke-miterlimit:4;stroke-dasharray:none;stroke-opacity:1"/><path d="m365.075 412.287 73.447 41.644-73.949 130.315-74.724-131.09Z" style="fill:#ffc000;fill-opacity:1;stroke:#000;stroke-width:0;stroke-linecap:butt;stroke-linejoin:miter;stroke-miterlimit:4;stroke-dasharray:none;stroke-opacity:1" transform="matrix(.25973 0 0 .25973 -4.764 125.555)"/><circle r="5.627" cy="141.428" cx="62.927" style="fill:#ffc000;fill-opacity:1;fill-rule:evenodd;stroke-width:.25453228"/><circle r="5.627" cy="141.492" cx="116.722" style="fill:#ffc000;fill-opacity:1;fill-rule:evenodd;stroke-width:.25453228"/><path transform="matrix(.25973 0 0 .25973 -4.831 125.555)" d="m260.372 62.984 75.5 79.38" style="fill:none;stroke:#ffc000;stroke-width:13.22834682;stroke-linecap:butt;stroke-linejoin:miter;stroke-miterlimit:4;stroke-dasharray:none;stroke-opacity:1"/><path transform="scale(.25973) rotate(87.062 103.029 404.794)" d="m260.372 62.984 75.5 79.38" style="fill:none;stroke:#ffc000;stroke-width:13.22834682;stroke-linecap:butt;stroke-linejoin:miter;stroke-miterlimit:4;stroke-dasharray:none;stroke-opacity:1"/><path style="fill:#ffe181;fill-opacity:1;stroke:#ffe181;stroke-width:13.22834682;stroke-miterlimit:4;stroke-dasharray:none;stroke-opacity:1" d="M231.999 273.713h44.214v44.214h-44.214z" transform="matrix(.25973 0 0 .25973 -4.764 125.555)"/><path style="fill:#ffe181;fill-opacity:1;stroke:#ffe181;stroke-width:13.46652222;stroke-miterlimit:4;stroke-dasharray:none;stroke-opacity:1" d="M167.28 246.036h45.01v45.01h-45.01z" transform="matrix(.25973 0 0 .25973 -4.764 125.555)"/><path style="fill:#ffe181;fill-opacity:1;stroke:#ffe181;stroke-width:5.30900335;stroke-miterlimit:4;stroke-dasharray:none;stroke-opacity:1" d="M238.443 331.42h17.745v17.745h-17.745zM199.529 356.63h17.745v17.745h-17.745zM135.503 285.77h17.745v17.745h-17.745zM101.534 411.704h17.745v17.745h-17.745z" transform="matrix(.25973 0 0 .25973 -4.764 125.555)"/><path style="fill:#ffe181;fill-opacity:1;stroke:#ffe181;stroke-width:9.41753483;stroke-miterlimit:4;stroke-dasharray:none;stroke-opacity:1" d="M182.51 308.394h31.477v31.477H182.51zM137.072 317.702h31.477v31.477h-31.477zM90.789 298.569h31.477v31.477H90.789zM23.77 398.858h31.477v31.477H23.77z" transform="matrix(.25973 0 0 .25973 -4.764 125.555)"/><path style="fill:#ffe181;fill-opacity:1;stroke:#ffe181;stroke-width:13.22834682;stroke-miterlimit:4;stroke-dasharray:none;stroke-opacity:1" d="M71.751 349.86h44.214v44.214H71.751zM137.82 368.065h44.214v44.214H137.82z" transform="matrix(.25973 0 0 .25973 -4.764 125.555)"/><path style="fill:#ffe181;fill-opacity:1;stroke:#ffe181;stroke-width:13.22834682;stroke-miterlimit:4;stroke-dasharray:none;stroke-opacity:1" d="M231.999 273.713h44.214v44.214h-44.214z" transform="matrix(-.25973 0 0 .25973 184.279 125.591)"/><path style="fill:#ffe181;fill-opacity:1;stroke:#ffe181;stroke-width:13.46652222;stroke-miterlimit:4;stroke-dasharray:none;stroke-opacity:1" d="M167.28 246.036h45.01v45.01h-45.01z" transform="matrix(-.25973 0 0 .25973 184.279 125.591)"/><path style="fill:#ffe181;fill-opacity:1;stroke:#ffe181;stroke-width:5.30900335;stroke-miterlimit:4;stroke-dasharray:none;stroke-opacity:1" d="M238.443 331.42h17.745v17.745h-17.745zM199.529 356.63h17.745v17.745h-17.745zM135.503 285.77h17.745v17.745h-17.745zM101.534 411.704h17.745v17.745h-17.745z" transform="matrix(-.25973 0 0 .25973 184.279 125.591)"/><path style="fill:#ffe181;fill-opacity:1;stroke:#ffe181;stroke-width:9.41753483;stroke-miterlimit:4;stroke-dasharray:none;stroke-opacity:1" d="M182.51 308.394h31.477v31.477H182.51zM137.072 317.702h31.477v31.477h-31.477zM90.789 298.569h31.477v31.477H90.789zM23.77 398.858h31.477v31.477H23.77z" transform="matrix(-.25973 0 0 .25973 184.279 125.591)"/><path style="fill:#ffe181;fill-opacity:1;stroke:#ffe181;stroke-width:13.22834682;stroke-miterlimit:4;stroke-dasharray:none;stroke-opacity:1" d="M71.751 349.86h44.214v44.214H71.751zM137.82 368.065h44.214v44.214H137.82z" transform="matrix(-.25973 0 0 .25973 184.279 125.591)"/></g></svg>